<svg width="666" height="244" viewBox="0 0 666 244" fill="none" xmlns="http://www.w3.org/2000/svg">
<path d="M192.156 196.005L164.679 149.473L144.156 149.607L170.783 196.019L192.156 196.005Z" fill="url(#paint0_linear_59_6102)"/>
<path d="M142.107 111.17L129.563 88.9375L89.1124 149.714L64.2969 196.213L142.107 111.17Z" fill="url(#paint1_linear_59_6102)"/>
<path d="M138.539 80.3359L121.156 65.9922L64.25 196.214L138.539 80.3359Z" fill="url(#paint2_linear_59_6102)"/>
<path d="M130.765 47.1444L115.704 47.0938L48.1523 196.171L64.2828 196.176L130.765 47.1444Z" fill="url(#paint3_linear_59_6102)"/>
<path d="M227.267 163.058H216.156L251.284 80.3047H263.147L298.448 163.058H286.585L275.879 137.017H248.506L251.457 128.336H272.291L256.839 90.8369L227.267 163.058Z" fill="#7A33ED"/>
<path d="M310.449 163.056V102.293H317.683L319.593 110.047C324.917 104.878 331.321 102.293 338.806 102.293V111.205C331.553 111.205 325.669 113.77 321.155 118.901V163.056H310.449Z" fill="#7A33ED"/>
<path d="M350.805 80.25H357.518L361.666 102.373L376.283 102.294V110.975H361.526V145.87C361.526 151.541 363.976 154.377 368.876 154.377H376.283V163.057H366.098C355.913 163.057 350.82 157.598 350.82 146.68L350.805 80.25Z" fill="#7A33ED"/>
<path d="M388.285 163.056V102.293H395.519L397.429 110.047C402.753 104.878 409.157 102.293 416.642 102.293V111.205C409.389 111.205 403.505 113.77 398.991 118.901V163.056H388.285Z" fill="#7A33ED"/>
<path d="M439.347 132.501C439.347 147.123 445.423 154.434 457.576 154.434C469.729 154.434 475.805 147.123 475.805 132.501C475.805 118.188 469.729 111.032 457.576 111.032C445.423 111.032 439.347 118.188 439.347 132.501ZM428.641 132.733C428.641 112.479 438.286 102.352 457.576 102.352C476.866 102.352 486.511 112.479 486.511 132.733C486.511 152.949 476.866 163.056 457.576 163.056C438.363 163.056 428.718 152.949 428.641 132.733Z" fill="#7A33ED"/>
<path d="M498.512 163.056V102.293H505.746L507.655 110.047C513.867 104.878 520.695 102.293 528.141 102.293C543.303 102.293 550.885 109.835 550.885 124.92V163.056H540.178V124.746C540.178 115.719 535.684 111.205 526.695 111.205C520.56 111.205 514.735 113.77 509.218 118.901V163.056H498.512Z" fill="#7A33ED"/>
<path d="M590.834 102.293C608.118 102.293 616.76 110.838 616.76 127.929C616.76 130.36 616.587 132.964 616.239 135.741H573.589C573.589 148.164 580.842 154.375 595.348 154.375C602.254 154.375 608.388 153.604 613.751 152.06V160.741C608.388 162.284 601.868 163.056 594.191 163.056C573.319 163.056 562.883 152.697 562.883 131.98C562.883 112.189 572.2 102.293 590.834 102.293ZM573.589 126.83H606.459C606.228 116.182 601.019 110.858 590.834 110.858C580.032 110.858 574.283 116.182 573.589 126.83Z" fill="#7A33ED"/>
<defs>
<linearGradient id="paint0_linear_59_6102" x1="177.867" y1="171.374" x2="138.061" y2="190.221" gradientUnits="userSpaceOnUse">
<stop stop-color="#7C57FB"/>
<stop offset="1" stop-color="#FAB497"/>
</linearGradient>
<linearGradient id="paint1_linear_59_6102" x1="107.534" y1="87.0958" x2="98.173" y2="199.046" gradientUnits="userSpaceOnUse">
<stop stop-color="#7C2FF2"/>
<stop offset="1" stop-color="#FFBA93"/>
</linearGradient>
<linearGradient id="paint2_linear_59_6102" x1="106.096" y1="64.7351" x2="94.8867" y2="198.778" gradientUnits="userSpaceOnUse">
<stop stop-color="#7C2FF2"/>
<stop offset="1" stop-color="#FFBA93"/>
</linearGradient>
<linearGradient id="paint3_linear_59_6102" x1="95.0801" y1="45.369" x2="82.2484" y2="198.819" gradientUnits="userSpaceOnUse">
<stop stop-color="#7C2FF2"/>
<stop offset="1" stop-color="#FFBA93"/>
</linearGradient>
</defs>
</svg>
